 http://www.cbtorrents.com

Downloaded from CBTorrents.com >> http://www.cbtorrents.com/showthread.php?6564-Bigg-Boss-Season-4-Episode-31-2-November-2010-XviD-MP3

Screenshots
 
http://img189.imageshack.us/img189/6486/bigu.jpg
 
http://www.cbtorrents.com/showthread.php?6564-Bigg-Boss-Season-4-Episode-31-2-November-2010-XviD-MP3

Rip Info

**************************************************
Big Boss - Season 4 - 2nd Nov 2010 - Ind - !!!v

**************************************************
Code:
General

Complete name : D:\ALL VIDEOS HERE\CURRENT VIDEO RECORDED\Big Boss - Season 4 - 2nd Nov 2010 - Ind - !!!v.avi

Format : AVI

Format/Info : Audio Video Interleave

File size : 425 MiB

Duration : 46mn 2s

Overal bit rate : 900 Kbps

Writing library : Boilsoft Joiner build 2411/release


Video

Format : MPEG-4 Visual

Format profile : Simple@L1

Format settings, BVOP : No

Format settings, QPel : No

Format settings, GMC : No warppoints

Format settings, Matrix : Default

Codec ID : XVID

Codec ID/Hint : XviD

Duration : 46mn 2s

Bit rate : 900 Kbps

Width : 512 pixels

Height : 384 pixels

Display aspect ratio : 4/3

Frame rate : 25.000 fps

Resolution : 8 bits

Colorimetry : 4:2:0

Scan type : Progressive

Bits/(Pixel*Frame) : 0.234

Stream size : 379 MiB

Writing library : Lavc51.54.0


Audio

Format : MPEG Audio

Format version : Version 1

Format profile : Layer 3

Codec ID : 55

Codec ID/Hint : MP3

Duration : 46mn 2s

Bit rate mode : Constant

Bit rate : 128 Kbps

Channel(s) : 2 channels

Sampling rate : 44.1 KHz

Resolution : 16 bits

Stream size : 42.2 MiB
__________________________________

For more daily exclusive visit here >> http://www.cbtorrents.com/forumdisplay.php?392-Bigg-Boss-Season-4